<mxfile host="app.diagrams.net" modified="2020-12-22T17:10:07.112Z" agent="5.0 (Windows NT 10.0; Win64; x64) AppleWebKit/537.36 (KHTML, like Gecko) Chrome/87.0.4280.88 Safari/537.36" etag="NoC9zmkDkEy5zhD54ywf" version="14.1.1" type="github" pages="3">
  <diagram id="JoAqMfJOs1_1gLLTx6Zp" name="Page-1">
    <mxGraphModel dx="782" dy="469" grid="1" gridSize="10" guides="1" tooltips="1" connect="1" arrows="1" fold="1" page="1" pageScale="1" pageWidth="827" pageHeight="1169" math="0" shadow="0">
      <root>
        <mxCell id="0" />
        <mxCell id="1" parent="0" />
        <mxCell id="JRisqvBH_iQ2f-G9EX7V-1" value="City" style="swimlane;fontStyle=3;align=center;verticalAlign=top;childLayout=stackLayout;horizontal=1;startSize=26;horizontalStack=0;resizeParent=1;resizeParentMax=0;resizeLast=0;collapsible=1;marginBottom=0;" vertex="1" parent="1">
          <mxGeometry x="160" y="90" width="160" height="34" as="geometry" />
        </mxCell>
        <mxCell id="JRisqvBH_iQ2f-G9EX7V-3" value="" style="line;strokeWidth=1;fillColor=none;align=left;verticalAlign=middle;spacingTop=-1;spacingLeft=3;spacingRight=3;rotatable=0;labelPosition=right;points=[];portConstraint=eastwest;" vertex="1" parent="JRisqvBH_iQ2f-G9EX7V-1">
          <mxGeometry y="26" width="160" height="8" as="geometry" />
        </mxCell>
        <mxCell id="JRisqvBH_iQ2f-G9EX7V-5" value="Capital City" style="swimlane;fontStyle=1;align=center;verticalAlign=top;childLayout=stackLayout;horizontal=1;startSize=26;horizontalStack=0;resizeParent=1;resizeParentMax=0;resizeLast=0;collapsible=1;marginBottom=0;" vertex="1" parent="1">
          <mxGeometry x="160" y="200" width="160" height="34" as="geometry" />
        </mxCell>
        <mxCell id="JRisqvBH_iQ2f-G9EX7V-7" value="" style="line;strokeWidth=1;fillColor=none;align=left;verticalAlign=middle;spacingTop=-1;spacingLeft=3;spacingRight=3;rotatable=0;labelPosition=right;points=[];portConstraint=eastwest;" vertex="1" parent="JRisqvBH_iQ2f-G9EX7V-5">
          <mxGeometry y="26" width="160" height="8" as="geometry" />
        </mxCell>
        <mxCell id="JRisqvBH_iQ2f-G9EX7V-11" value="A country has a capital city&amp;nbsp;" style="text;html=1;align=center;verticalAlign=middle;resizable=0;points=[];autosize=1;fontSize=22;" vertex="1" parent="1">
          <mxGeometry x="120" y="30" width="280" height="30" as="geometry" />
        </mxCell>
        <mxCell id="JRisqvBH_iQ2f-G9EX7V-12" value="Country" style="swimlane;fontStyle=1;align=center;verticalAlign=top;childLayout=stackLayout;horizontal=1;startSize=26;horizontalStack=0;resizeParent=1;resizeParentMax=0;resizeLast=0;collapsible=1;marginBottom=0;" vertex="1" parent="1">
          <mxGeometry x="414" y="90" width="160" height="34" as="geometry" />
        </mxCell>
        <mxCell id="JRisqvBH_iQ2f-G9EX7V-14" value="" style="line;strokeWidth=1;fillColor=none;align=left;verticalAlign=middle;spacingTop=-1;spacingLeft=3;spacingRight=3;rotatable=0;labelPosition=right;points=[];portConstraint=eastwest;" vertex="1" parent="JRisqvBH_iQ2f-G9EX7V-12">
          <mxGeometry y="26" width="160" height="8" as="geometry" />
        </mxCell>
        <mxCell id="JRisqvBH_iQ2f-G9EX7V-16" value="&lt;font style=&quot;line-height: 50% ; font-size: 12px&quot;&gt;Extends&lt;/font&gt;" style="endArrow=block;endSize=16;endFill=0;html=1;fontSize=22;entryX=0.5;entryY=1;entryDx=0;entryDy=0;exitX=0.5;exitY=0;exitDx=0;exitDy=0;" edge="1" parent="1" source="JRisqvBH_iQ2f-G9EX7V-5" target="JRisqvBH_iQ2f-G9EX7V-1">
          <mxGeometry width="160" relative="1" as="geometry">
            <mxPoint x="240" y="250" as="sourcePoint" />
            <mxPoint x="240.64" y="152.00199999999995" as="targetPoint" />
          </mxGeometry>
        </mxCell>
        <mxCell id="JRisqvBH_iQ2f-G9EX7V-17" value="" style="endArrow=diamondThin;endFill=1;endSize=24;html=1;fontSize=22;exitX=1;exitY=0.5;exitDx=0;exitDy=0;" edge="1" parent="1">
          <mxGeometry width="160" relative="1" as="geometry">
            <mxPoint x="320" y="109" as="sourcePoint" />
            <mxPoint x="414" y="109" as="targetPoint" />
          </mxGeometry>
        </mxCell>
        <mxCell id="JRisqvBH_iQ2f-G9EX7V-18" value="&lt;span id=&quot;docs-internal-guid-f0a21212-7fff-ebea-b6c7-1354cb7f8828&quot;&gt;&lt;span style=&quot;font-size: 16pt ; font-family: &amp;#34;fira sans condensed&amp;#34; , sans-serif ; background-color: transparent ; vertical-align: baseline&quot;&gt;A dining &lt;/span&gt;&lt;span style=&quot;font-size: 16pt ; font-family: &amp;#34;fira sans condensed&amp;#34; , sans-serif ; background-color: transparent ; vertical-align: baseline&quot;&gt;philosopher&lt;/span&gt;&lt;span style=&quot;font-size: 16pt ; font-family: &amp;#34;fira sans condensed&amp;#34; , sans-serif ; background-color: transparent ; vertical-align: baseline&quot;&gt; is using a &lt;/span&gt;&lt;span style=&quot;font-size: 16pt ; font-family: &amp;#34;fira sans condensed&amp;#34; , sans-serif ; background-color: transparent ; vertical-align: baseline&quot;&gt;fork&lt;/span&gt;&lt;span style=&quot;font-size: 16pt ; font-family: &amp;#34;fira sans condensed&amp;#34; , sans-serif ; background-color: transparent ; vertical-align: baseline&quot;&gt;.&lt;/span&gt;&lt;/span&gt;" style="text;html=1;align=center;verticalAlign=middle;resizable=0;points=[];autosize=1;fontSize=22;" vertex="1" parent="1">
          <mxGeometry x="120" y="280" width="350" height="30" as="geometry" />
        </mxCell>
        <mxCell id="JRisqvBH_iQ2f-G9EX7V-23" value="Person" style="swimlane;fontStyle=3;align=center;verticalAlign=top;childLayout=stackLayout;horizontal=1;startSize=26;horizontalStack=0;resizeParent=1;resizeParentMax=0;resizeLast=0;collapsible=1;marginBottom=0;" vertex="1" parent="1">
          <mxGeometry x="160" y="340" width="160" height="60" as="geometry" />
        </mxCell>
        <mxCell id="JRisqvBH_iQ2f-G9EX7V-25" value="" style="line;strokeWidth=1;fillColor=none;align=left;verticalAlign=middle;spacingTop=-1;spacingLeft=3;spacingRight=3;rotatable=0;labelPosition=right;points=[];portConstraint=eastwest;" vertex="1" parent="JRisqvBH_iQ2f-G9EX7V-23">
          <mxGeometry y="26" width="160" height="8" as="geometry" />
        </mxCell>
        <mxCell id="JRisqvBH_iQ2f-G9EX7V-26" value="+ dining(Utensil)" style="text;strokeColor=none;fillColor=none;align=left;verticalAlign=top;spacingLeft=4;spacingRight=4;overflow=hidden;rotatable=0;points=[[0,0.5],[1,0.5]];portConstraint=eastwest;" vertex="1" parent="JRisqvBH_iQ2f-G9EX7V-23">
          <mxGeometry y="34" width="160" height="26" as="geometry" />
        </mxCell>
        <mxCell id="JRisqvBH_iQ2f-G9EX7V-27" value="Philosopher" style="swimlane;fontStyle=1;align=center;verticalAlign=top;childLayout=stackLayout;horizontal=1;startSize=26;horizontalStack=0;resizeParent=1;resizeParentMax=0;resizeLast=0;collapsible=1;marginBottom=0;" vertex="1" parent="1">
          <mxGeometry x="414" y="350" width="160" height="34" as="geometry" />
        </mxCell>
        <mxCell id="JRisqvBH_iQ2f-G9EX7V-29" value="" style="line;strokeWidth=1;fillColor=none;align=left;verticalAlign=middle;spacingTop=-1;spacingLeft=3;spacingRight=3;rotatable=0;labelPosition=right;points=[];portConstraint=eastwest;" vertex="1" parent="JRisqvBH_iQ2f-G9EX7V-27">
          <mxGeometry y="26" width="160" height="8" as="geometry" />
        </mxCell>
        <mxCell id="JRisqvBH_iQ2f-G9EX7V-32" value="Use" style="endArrow=open;endSize=12;dashed=1;html=1;fontSize=12;exitX=0.504;exitY=1.077;exitDx=0;exitDy=0;exitPerimeter=0;" edge="1" parent="1" source="JRisqvBH_iQ2f-G9EX7V-26">
          <mxGeometry width="160" relative="1" as="geometry">
            <mxPoint x="170" y="270" as="sourcePoint" />
            <mxPoint x="241" y="490" as="targetPoint" />
          </mxGeometry>
        </mxCell>
        <mxCell id="JRisqvBH_iQ2f-G9EX7V-34" value="Utensil" style="swimlane;fontStyle=3;align=center;verticalAlign=top;childLayout=stackLayout;horizontal=1;startSize=26;horizontalStack=0;resizeParent=1;resizeParentMax=0;resizeLast=0;collapsible=1;marginBottom=0;" vertex="1" parent="1">
          <mxGeometry x="160" y="490" width="160" height="34" as="geometry" />
        </mxCell>
        <mxCell id="JRisqvBH_iQ2f-G9EX7V-36" value="" style="line;strokeWidth=1;fillColor=none;align=left;verticalAlign=middle;spacingTop=-1;spacingLeft=3;spacingRight=3;rotatable=0;labelPosition=right;points=[];portConstraint=eastwest;" vertex="1" parent="JRisqvBH_iQ2f-G9EX7V-34">
          <mxGeometry y="26" width="160" height="8" as="geometry" />
        </mxCell>
        <mxCell id="JRisqvBH_iQ2f-G9EX7V-38" value="Fork" style="swimlane;fontStyle=1;align=center;verticalAlign=top;childLayout=stackLayout;horizontal=1;startSize=26;horizontalStack=0;resizeParent=1;resizeParentMax=0;resizeLast=0;collapsible=1;marginBottom=0;" vertex="1" parent="1">
          <mxGeometry x="414" y="490" width="160" height="34" as="geometry" />
        </mxCell>
        <mxCell id="JRisqvBH_iQ2f-G9EX7V-41" value="" style="line;strokeWidth=1;fillColor=none;align=left;verticalAlign=middle;spacingTop=-1;spacingLeft=3;spacingRight=3;rotatable=0;labelPosition=right;points=[];portConstraint=eastwest;" vertex="1" parent="JRisqvBH_iQ2f-G9EX7V-38">
          <mxGeometry y="26" width="160" height="8" as="geometry" />
        </mxCell>
        <mxCell id="JRisqvBH_iQ2f-G9EX7V-43" value="&lt;span id=&quot;docs-internal-guid-0572b9d9-7fff-dba5-d5cb-8c31219a79a6&quot;&gt;&lt;span style=&quot;font-size: 16pt ; font-family: &amp;#34;fira sans condensed&amp;#34; , sans-serif ; background-color: transparent ; vertical-align: baseline&quot;&gt;A &lt;/span&gt;&lt;span style=&quot;font-size: 16pt ; font-family: &amp;#34;fira sans condensed&amp;#34; , sans-serif ; background-color: transparent ; vertical-align: baseline&quot;&gt;file&lt;/span&gt;&lt;span style=&quot;font-size: 16pt ; font-family: &amp;#34;fira sans condensed&amp;#34; , sans-serif ; background-color: transparent ; vertical-align: baseline&quot;&gt; is an &lt;/span&gt;&lt;span style=&quot;font-size: 16pt ; font-family: &amp;#34;fira sans condensed&amp;#34; , sans-serif ; background-color: transparent ; vertical-align: baseline&quot;&gt;ordinary file&lt;/span&gt;&lt;span style=&quot;font-size: 16pt ; font-family: &amp;#34;fira sans condensed&amp;#34; , sans-serif ; background-color: transparent ; vertical-align: baseline&quot;&gt; or &lt;/span&gt;&lt;span style=&quot;font-size: 16pt ; font-family: &amp;#34;fira sans condensed&amp;#34; , sans-serif ; background-color: transparent ; vertical-align: baseline&quot;&gt;a directory file&lt;/span&gt;&lt;span style=&quot;font-size: 16pt ; font-family: &amp;#34;fira sans condensed&amp;#34; , sans-serif ; background-color: transparent ; vertical-align: baseline&quot;&gt;.&lt;/span&gt;&lt;span style=&quot;font-size: 16pt ; font-family: &amp;#34;fira sans condensed&amp;#34; , sans-serif ; background-color: transparent ; vertical-align: baseline&quot;&gt;&lt;br&gt;&lt;/span&gt;&lt;/span&gt;" style="text;html=1;align=center;verticalAlign=middle;resizable=0;points=[];autosize=1;fontSize=12;" vertex="1" parent="1">
          <mxGeometry x="120" y="585" width="400" height="20" as="geometry" />
        </mxCell>
        <mxCell id="JRisqvBH_iQ2f-G9EX7V-44" value="File" style="swimlane;fontStyle=3;align=center;verticalAlign=top;childLayout=stackLayout;horizontal=1;startSize=26;horizontalStack=0;resizeParent=1;resizeParentMax=0;resizeLast=0;collapsible=1;marginBottom=0;" vertex="1" parent="1">
          <mxGeometry x="160" y="680" width="160" height="34" as="geometry" />
        </mxCell>
        <mxCell id="JRisqvBH_iQ2f-G9EX7V-46" value="" style="line;strokeWidth=1;fillColor=none;align=left;verticalAlign=middle;spacingTop=-1;spacingLeft=3;spacingRight=3;rotatable=0;labelPosition=right;points=[];portConstraint=eastwest;" vertex="1" parent="JRisqvBH_iQ2f-G9EX7V-44">
          <mxGeometry y="26" width="160" height="8" as="geometry" />
        </mxCell>
        <mxCell id="JRisqvBH_iQ2f-G9EX7V-48" value="Ordinary File" style="swimlane;fontStyle=1;align=center;verticalAlign=top;childLayout=stackLayout;horizontal=1;startSize=26;horizontalStack=0;resizeParent=1;resizeParentMax=0;resizeLast=0;collapsible=1;marginBottom=0;" vertex="1" parent="1">
          <mxGeometry x="160" y="815" width="160" height="34" as="geometry" />
        </mxCell>
        <mxCell id="JRisqvBH_iQ2f-G9EX7V-50" value="" style="line;strokeWidth=1;fillColor=none;align=left;verticalAlign=middle;spacingTop=-1;spacingLeft=3;spacingRight=3;rotatable=0;labelPosition=right;points=[];portConstraint=eastwest;" vertex="1" parent="JRisqvBH_iQ2f-G9EX7V-48">
          <mxGeometry y="26" width="160" height="8" as="geometry" />
        </mxCell>
        <mxCell id="JRisqvBH_iQ2f-G9EX7V-52" value="Directory File" style="swimlane;fontStyle=1;align=center;verticalAlign=top;childLayout=stackLayout;horizontal=1;startSize=26;horizontalStack=0;resizeParent=1;resizeParentMax=0;resizeLast=0;collapsible=1;marginBottom=0;" vertex="1" parent="1">
          <mxGeometry x="440" y="729" width="160" height="34" as="geometry" />
        </mxCell>
        <mxCell id="JRisqvBH_iQ2f-G9EX7V-54" value="" style="line;strokeWidth=1;fillColor=none;align=left;verticalAlign=middle;spacingTop=-1;spacingLeft=3;spacingRight=3;rotatable=0;labelPosition=right;points=[];portConstraint=eastwest;" vertex="1" parent="JRisqvBH_iQ2f-G9EX7V-52">
          <mxGeometry y="26" width="160" height="8" as="geometry" />
        </mxCell>
        <mxCell id="JRisqvBH_iQ2f-G9EX7V-56" value="&lt;font style=&quot;line-height: 50% ; font-size: 12px&quot;&gt;Extends&lt;/font&gt;" style="endArrow=block;endSize=16;endFill=0;html=1;fontSize=22;exitX=0.5;exitY=0;exitDx=0;exitDy=0;entryX=0.5;entryY=1;entryDx=0;entryDy=0;" edge="1" parent="1" source="JRisqvBH_iQ2f-G9EX7V-48" target="JRisqvBH_iQ2f-G9EX7V-44">
          <mxGeometry width="160" relative="1" as="geometry">
            <mxPoint x="240" y="815" as="sourcePoint" />
            <mxPoint x="250" y="720" as="targetPoint" />
          </mxGeometry>
        </mxCell>
        <mxCell id="JRisqvBH_iQ2f-G9EX7V-58" value="" style="endArrow=diamondThin;endFill=0;endSize=24;html=1;fontSize=12;entryX=0.75;entryY=0;entryDx=0;entryDy=0;exitX=1;exitY=0.5;exitDx=0;exitDy=0;edgeStyle=orthogonalEdgeStyle;" edge="1" parent="1" target="JRisqvBH_iQ2f-G9EX7V-52">
          <mxGeometry width="160" relative="1" as="geometry">
            <mxPoint x="320" y="694" as="sourcePoint" />
            <mxPoint x="390" y="605" as="targetPoint" />
          </mxGeometry>
        </mxCell>
        <mxCell id="JRisqvBH_iQ2f-G9EX7V-73" value="&lt;font style=&quot;line-height: 50% ; font-size: 12px&quot;&gt;Extends&lt;/font&gt;" style="endArrow=block;endSize=16;endFill=0;html=1;fontSize=22;entryX=1;entryY=0.821;entryDx=0;entryDy=0;entryPerimeter=0;exitX=0;exitY=0.5;exitDx=0;exitDy=0;verticalAlign=top;fillColor=#f5f5f5;strokeColor=#666666;labelBackgroundColor=none;" edge="1" parent="1" source="JRisqvBH_iQ2f-G9EX7V-52">
          <mxGeometry width="160" relative="1" as="geometry">
            <mxPoint x="440.6400000000001" y="784.328" as="sourcePoint" />
            <mxPoint x="320" y="702.346" as="targetPoint" />
          </mxGeometry>
        </mxCell>
        <mxCell id="X0qvvwPoObW7Li8NSrvQ-2" value="1..*" style="text;html=1;align=center;verticalAlign=middle;resizable=0;points=[];autosize=1;fontSize=12;" vertex="1" parent="1">
          <mxGeometry x="320" y="90" width="30" height="20" as="geometry" />
        </mxCell>
        <mxCell id="JRisqvBH_iQ2f-G9EX7V-31" value="&lt;font style=&quot;line-height: 50% ; font-size: 12px&quot;&gt;Extends&lt;/font&gt;" style="endArrow=block;endSize=16;endFill=0;html=1;fontSize=22;entryX=1;entryY=0.051;entryDx=0;entryDy=0;exitX=0;exitY=0.75;exitDx=0;exitDy=0;verticalAlign=bottom;entryPerimeter=0;" edge="1" parent="1" source="JRisqvBH_iQ2f-G9EX7V-27" target="JRisqvBH_iQ2f-G9EX7V-26">
          <mxGeometry width="160" relative="1" as="geometry">
            <mxPoint x="413" y="392" as="sourcePoint" />
            <mxPoint x="320" y="389" as="targetPoint" />
          </mxGeometry>
        </mxCell>
        <mxCell id="JRisqvBH_iQ2f-G9EX7V-39" value="&lt;font style=&quot;line-height: 50% ; font-size: 12px&quot;&gt;Extends&lt;/font&gt;" style="endArrow=block;endSize=16;endFill=0;html=1;fontSize=22;entryX=1;entryY=0.5;entryDx=0;entryDy=0;exitX=0;exitY=0.5;exitDx=0;exitDy=0;verticalAlign=bottom;" edge="1" parent="1" source="JRisqvBH_iQ2f-G9EX7V-38" target="JRisqvBH_iQ2f-G9EX7V-34">
          <mxGeometry width="160" relative="1" as="geometry">
            <mxPoint x="413" y="532" as="sourcePoint" />
            <mxPoint x="320" y="529" as="targetPoint" />
          </mxGeometry>
        </mxCell>
        <mxCell id="iUiUB8TLximm_v0y9vMg-1" value="&lt;div&gt;&lt;span style=&quot;background-color: transparent ; font-size: 16pt ; font-family: &amp;#34;fira sans condensed&amp;#34; , sans-serif ; vertical-align: baseline&quot;&gt;Files&lt;/span&gt;&lt;span style=&quot;background-color: transparent ; font-size: 16pt ; font-family: &amp;#34;fira sans condensed&amp;#34; , sans-serif ; vertical-align: baseline&quot;&gt; contain &lt;/span&gt;&lt;span style=&quot;background-color: transparent ; font-size: 16pt ; font-family: &amp;#34;fira sans condensed&amp;#34; , sans-serif ; vertical-align: baseline&quot;&gt;records&lt;/span&gt;&lt;span style=&quot;background-color: transparent ; font-size: 16pt ; font-family: &amp;#34;fira sans condensed&amp;#34; , sans-serif ; vertical-align: baseline&quot;&gt;.&lt;/span&gt;&lt;/div&gt;" style="text;html=1;align=left;verticalAlign=middle;resizable=0;points=[];autosize=1;fontSize=12;" vertex="1" parent="1">
          <mxGeometry x="120" y="930" width="220" height="20" as="geometry" />
        </mxCell>
        <mxCell id="iUiUB8TLximm_v0y9vMg-2" value="File" style="swimlane;fontStyle=3;align=center;verticalAlign=top;childLayout=stackLayout;horizontal=1;startSize=26;horizontalStack=0;resizeParent=1;resizeParentMax=0;resizeLast=0;collapsible=1;marginBottom=0;" vertex="1" parent="1">
          <mxGeometry x="160" y="990" width="160" height="34" as="geometry" />
        </mxCell>
        <mxCell id="iUiUB8TLximm_v0y9vMg-4" value="" style="line;strokeWidth=1;fillColor=none;align=left;verticalAlign=middle;spacingTop=-1;spacingLeft=3;spacingRight=3;rotatable=0;labelPosition=right;points=[];portConstraint=eastwest;" vertex="1" parent="iUiUB8TLximm_v0y9vMg-2">
          <mxGeometry y="26" width="160" height="8" as="geometry" />
        </mxCell>
        <mxCell id="iUiUB8TLximm_v0y9vMg-6" value="Records" style="swimlane;fontStyle=1;align=center;verticalAlign=top;childLayout=stackLayout;horizontal=1;startSize=26;horizontalStack=0;resizeParent=1;resizeParentMax=0;resizeLast=0;collapsible=1;marginBottom=0;" vertex="1" parent="1">
          <mxGeometry x="480" y="990" width="160" height="34" as="geometry" />
        </mxCell>
        <mxCell id="iUiUB8TLximm_v0y9vMg-8" value="" style="line;strokeWidth=1;fillColor=none;align=left;verticalAlign=middle;spacingTop=-1;spacingLeft=3;spacingRight=3;rotatable=0;labelPosition=right;points=[];portConstraint=eastwest;" vertex="1" parent="iUiUB8TLximm_v0y9vMg-6">
          <mxGeometry y="26" width="160" height="8" as="geometry" />
        </mxCell>
        <mxCell id="iUiUB8TLximm_v0y9vMg-10" value="" style="endArrow=block;startArrow=block;endFill=1;startFill=1;html=1;labelBackgroundColor=none;fontSize=12;" edge="1" parent="1">
          <mxGeometry width="160" relative="1" as="geometry">
            <mxPoint x="320" y="1006.71" as="sourcePoint" />
            <mxPoint x="480" y="1006.71" as="targetPoint" />
          </mxGeometry>
        </mxCell>
        <mxCell id="iUiUB8TLximm_v0y9vMg-11" value="1..*" style="text;html=1;align=center;verticalAlign=middle;resizable=0;points=[];autosize=1;fontSize=12;" vertex="1" parent="1">
          <mxGeometry x="440" y="980" width="30" height="20" as="geometry" />
        </mxCell>
      </root>
    </mxGraphModel>
  </diagram>
  <diagram id="I4NKx7wIaHCNpB6_afdP" name="Page-2">
    <mxGraphModel dx="920" dy="552" grid="1" gridSize="10" guides="1" tooltips="1" connect="1" arrows="1" fold="1" page="1" pageScale="1" pageWidth="827" pageHeight="1169" math="0" shadow="0">
      <root>
        <mxCell id="rI4jBM8ufkGh8vphIBhU-0" />
        <mxCell id="rI4jBM8ufkGh8vphIBhU-1" parent="rI4jBM8ufkGh8vphIBhU-0" />
        <mxCell id="bRQh9TKNIK82RvDpxn-U-11" value="&lt;span id=&quot;docs-internal-guid-7dab724c-7fff-9654-6d6b-14b3b249acfe&quot;&gt;&lt;span style=&quot;font-size: 16pt ; font-family: &amp;#34;fira sans condensed&amp;#34; , sans-serif ; background-color: transparent ; vertical-align: baseline&quot;&gt;A person uses a computer language on a project&lt;/span&gt;&lt;span style=&quot;font-size: 16pt ; font-family: &amp;#34;fira sans condensed&amp;#34; , sans-serif ; background-color: transparent ; vertical-align: baseline&quot;&gt;&lt;br&gt;&lt;/span&gt;&lt;/span&gt;" style="text;html=1;align=left;verticalAlign=middle;resizable=0;points=[];autosize=1;fontSize=12;" vertex="1" parent="rI4jBM8ufkGh8vphIBhU-1">
          <mxGeometry x="80" y="270" width="470" height="20" as="geometry" />
        </mxCell>
        <mxCell id="bRQh9TKNIK82RvDpxn-U-12" value="Person" style="swimlane;fontStyle=3;align=center;verticalAlign=top;childLayout=stackLayout;horizontal=1;startSize=26;horizontalStack=0;resizeParent=1;resizeParentMax=0;resizeLast=0;collapsible=1;marginBottom=0;" vertex="1" parent="rI4jBM8ufkGh8vphIBhU-1">
          <mxGeometry x="120" y="310" width="160" height="86" as="geometry" />
        </mxCell>
        <mxCell id="bRQh9TKNIK82RvDpxn-U-13" value="+ field: type" style="text;strokeColor=none;fillColor=none;align=left;verticalAlign=top;spacingLeft=4;spacingRight=4;overflow=hidden;rotatable=0;points=[[0,0.5],[1,0.5]];portConstraint=eastwest;" vertex="1" parent="bRQh9TKNIK82RvDpxn-U-12">
          <mxGeometry y="26" width="160" height="26" as="geometry" />
        </mxCell>
        <mxCell id="bRQh9TKNIK82RvDpxn-U-14" value="" style="line;strokeWidth=1;fillColor=none;align=left;verticalAlign=middle;spacingTop=-1;spacingLeft=3;spacingRight=3;rotatable=0;labelPosition=right;points=[];portConstraint=eastwest;" vertex="1" parent="bRQh9TKNIK82RvDpxn-U-12">
          <mxGeometry y="52" width="160" height="8" as="geometry" />
        </mxCell>
        <mxCell id="bRQh9TKNIK82RvDpxn-U-15" value="+ method(type): type" style="text;strokeColor=none;fillColor=none;align=left;verticalAlign=top;spacingLeft=4;spacingRight=4;overflow=hidden;rotatable=0;points=[[0,0.5],[1,0.5]];portConstraint=eastwest;" vertex="1" parent="bRQh9TKNIK82RvDpxn-U-12">
          <mxGeometry y="60" width="160" height="26" as="geometry" />
        </mxCell>
        <mxCell id="bRQh9TKNIK82RvDpxn-U-16" value="Computer Language" style="swimlane;fontStyle=3;align=center;verticalAlign=top;childLayout=stackLayout;horizontal=1;startSize=26;horizontalStack=0;resizeParent=1;resizeParentMax=0;resizeLast=0;collapsible=1;marginBottom=0;" vertex="1" parent="rI4jBM8ufkGh8vphIBhU-1">
          <mxGeometry x="430" y="310" width="160" height="86" as="geometry" />
        </mxCell>
        <mxCell id="bRQh9TKNIK82RvDpxn-U-17" value="+ field: type" style="text;strokeColor=none;fillColor=none;align=left;verticalAlign=top;spacingLeft=4;spacingRight=4;overflow=hidden;rotatable=0;points=[[0,0.5],[1,0.5]];portConstraint=eastwest;" vertex="1" parent="bRQh9TKNIK82RvDpxn-U-16">
          <mxGeometry y="26" width="160" height="26" as="geometry" />
        </mxCell>
        <mxCell id="bRQh9TKNIK82RvDpxn-U-18" value="" style="line;strokeWidth=1;fillColor=none;align=left;verticalAlign=middle;spacingTop=-1;spacingLeft=3;spacingRight=3;rotatable=0;labelPosition=right;points=[];portConstraint=eastwest;" vertex="1" parent="bRQh9TKNIK82RvDpxn-U-16">
          <mxGeometry y="52" width="160" height="8" as="geometry" />
        </mxCell>
        <mxCell id="bRQh9TKNIK82RvDpxn-U-19" value="+ method(type): type" style="text;strokeColor=none;fillColor=none;align=left;verticalAlign=top;spacingLeft=4;spacingRight=4;overflow=hidden;rotatable=0;points=[[0,0.5],[1,0.5]];portConstraint=eastwest;" vertex="1" parent="bRQh9TKNIK82RvDpxn-U-16">
          <mxGeometry y="60" width="160" height="26" as="geometry" />
        </mxCell>
        <mxCell id="bRQh9TKNIK82RvDpxn-U-20" value="Project" style="swimlane;fontStyle=3;align=center;verticalAlign=top;childLayout=stackLayout;horizontal=1;startSize=26;horizontalStack=0;resizeParent=1;resizeParentMax=0;resizeLast=0;collapsible=1;marginBottom=0;" vertex="1" parent="rI4jBM8ufkGh8vphIBhU-1">
          <mxGeometry x="120" y="470" width="160" height="86" as="geometry" />
        </mxCell>
        <mxCell id="bRQh9TKNIK82RvDpxn-U-21" value="+ field: type" style="text;strokeColor=none;fillColor=none;align=left;verticalAlign=top;spacingLeft=4;spacingRight=4;overflow=hidden;rotatable=0;points=[[0,0.5],[1,0.5]];portConstraint=eastwest;" vertex="1" parent="bRQh9TKNIK82RvDpxn-U-20">
          <mxGeometry y="26" width="160" height="26" as="geometry" />
        </mxCell>
        <mxCell id="bRQh9TKNIK82RvDpxn-U-22" value="" style="line;strokeWidth=1;fillColor=none;align=left;verticalAlign=middle;spacingTop=-1;spacingLeft=3;spacingRight=3;rotatable=0;labelPosition=right;points=[];portConstraint=eastwest;" vertex="1" parent="bRQh9TKNIK82RvDpxn-U-20">
          <mxGeometry y="52" width="160" height="8" as="geometry" />
        </mxCell>
        <mxCell id="bRQh9TKNIK82RvDpxn-U-23" value="+ method(type): type" style="text;strokeColor=none;fillColor=none;align=left;verticalAlign=top;spacingLeft=4;spacingRight=4;overflow=hidden;rotatable=0;points=[[0,0.5],[1,0.5]];portConstraint=eastwest;" vertex="1" parent="bRQh9TKNIK82RvDpxn-U-20">
          <mxGeometry y="60" width="160" height="26" as="geometry" />
        </mxCell>
        <mxCell id="bRQh9TKNIK82RvDpxn-U-24" value="&lt;span id=&quot;docs-internal-guid-e81aeef2-7fff-89b8-f234-4cc1e35b3d28&quot;&gt;&lt;span style=&quot;font-size: 16pt ; font-family: &amp;quot;fira sans condensed&amp;quot; , sans-serif ; background-color: transparent ; vertical-align: baseline&quot;&gt;Modems and keyboards are input/output devices&lt;/span&gt;&lt;/span&gt;" style="text;html=1;align=left;verticalAlign=middle;resizable=0;points=[];autosize=1;fontSize=12;" vertex="1" parent="rI4jBM8ufkGh8vphIBhU-1">
          <mxGeometry x="80" y="600" width="480" height="20" as="geometry" />
        </mxCell>
        <mxCell id="bRQh9TKNIK82RvDpxn-U-25" value="Input/Output Device" style="swimlane;fontStyle=3;align=center;verticalAlign=top;childLayout=stackLayout;horizontal=1;startSize=26;horizontalStack=0;resizeParent=1;resizeParentMax=0;resizeLast=0;collapsible=1;marginBottom=0;" vertex="1" parent="rI4jBM8ufkGh8vphIBhU-1">
          <mxGeometry x="120" y="660" width="160" height="86" as="geometry" />
        </mxCell>
        <mxCell id="bRQh9TKNIK82RvDpxn-U-26" value="+ field: type" style="text;strokeColor=none;fillColor=none;align=left;verticalAlign=top;spacingLeft=4;spacingRight=4;overflow=hidden;rotatable=0;points=[[0,0.5],[1,0.5]];portConstraint=eastwest;" vertex="1" parent="bRQh9TKNIK82RvDpxn-U-25">
          <mxGeometry y="26" width="160" height="26" as="geometry" />
        </mxCell>
        <mxCell id="bRQh9TKNIK82RvDpxn-U-27" value="" style="line;strokeWidth=1;fillColor=none;align=left;verticalAlign=middle;spacingTop=-1;spacingLeft=3;spacingRight=3;rotatable=0;labelPosition=right;points=[];portConstraint=eastwest;" vertex="1" parent="bRQh9TKNIK82RvDpxn-U-25">
          <mxGeometry y="52" width="160" height="8" as="geometry" />
        </mxCell>
        <mxCell id="bRQh9TKNIK82RvDpxn-U-28" value="+ method(type): type" style="text;strokeColor=none;fillColor=none;align=left;verticalAlign=top;spacingLeft=4;spacingRight=4;overflow=hidden;rotatable=0;points=[[0,0.5],[1,0.5]];portConstraint=eastwest;" vertex="1" parent="bRQh9TKNIK82RvDpxn-U-25">
          <mxGeometry y="60" width="160" height="26" as="geometry" />
        </mxCell>
        <mxCell id="bRQh9TKNIK82RvDpxn-U-29" value="Keyboards" style="swimlane;fontStyle=1;align=center;verticalAlign=top;childLayout=stackLayout;horizontal=1;startSize=26;horizontalStack=0;resizeParent=1;resizeParentMax=0;resizeLast=0;collapsible=1;marginBottom=0;" vertex="1" parent="rI4jBM8ufkGh8vphIBhU-1">
          <mxGeometry x="430" y="660" width="160" height="86" as="geometry" />
        </mxCell>
        <mxCell id="bRQh9TKNIK82RvDpxn-U-30" value="+ field: type" style="text;strokeColor=none;fillColor=none;align=left;verticalAlign=top;spacingLeft=4;spacingRight=4;overflow=hidden;rotatable=0;points=[[0,0.5],[1,0.5]];portConstraint=eastwest;" vertex="1" parent="bRQh9TKNIK82RvDpxn-U-29">
          <mxGeometry y="26" width="160" height="26" as="geometry" />
        </mxCell>
        <mxCell id="bRQh9TKNIK82RvDpxn-U-31" value="" style="line;strokeWidth=1;fillColor=none;align=left;verticalAlign=middle;spacingTop=-1;spacingLeft=3;spacingRight=3;rotatable=0;labelPosition=right;points=[];portConstraint=eastwest;" vertex="1" parent="bRQh9TKNIK82RvDpxn-U-29">
          <mxGeometry y="52" width="160" height="8" as="geometry" />
        </mxCell>
        <mxCell id="bRQh9TKNIK82RvDpxn-U-32" value="+ method(type): type" style="text;strokeColor=none;fillColor=none;align=left;verticalAlign=top;spacingLeft=4;spacingRight=4;overflow=hidden;rotatable=0;points=[[0,0.5],[1,0.5]];portConstraint=eastwest;" vertex="1" parent="bRQh9TKNIK82RvDpxn-U-29">
          <mxGeometry y="60" width="160" height="26" as="geometry" />
        </mxCell>
        <mxCell id="bRQh9TKNIK82RvDpxn-U-33" value="Modem" style="swimlane;fontStyle=1;align=center;verticalAlign=top;childLayout=stackLayout;horizontal=1;startSize=26;horizontalStack=0;resizeParent=1;resizeParentMax=0;resizeLast=0;collapsible=1;marginBottom=0;" vertex="1" parent="rI4jBM8ufkGh8vphIBhU-1">
          <mxGeometry x="120" y="820" width="160" height="86" as="geometry" />
        </mxCell>
        <mxCell id="bRQh9TKNIK82RvDpxn-U-34" value="+ field: type" style="text;strokeColor=none;fillColor=none;align=left;verticalAlign=top;spacingLeft=4;spacingRight=4;overflow=hidden;rotatable=0;points=[[0,0.5],[1,0.5]];portConstraint=eastwest;" vertex="1" parent="bRQh9TKNIK82RvDpxn-U-33">
          <mxGeometry y="26" width="160" height="26" as="geometry" />
        </mxCell>
        <mxCell id="bRQh9TKNIK82RvDpxn-U-35" value="" style="line;strokeWidth=1;fillColor=none;align=left;verticalAlign=middle;spacingTop=-1;spacingLeft=3;spacingRight=3;rotatable=0;labelPosition=right;points=[];portConstraint=eastwest;" vertex="1" parent="bRQh9TKNIK82RvDpxn-U-33">
          <mxGeometry y="52" width="160" height="8" as="geometry" />
        </mxCell>
        <mxCell id="bRQh9TKNIK82RvDpxn-U-36" value="+ method(type): type" style="text;strokeColor=none;fillColor=none;align=left;verticalAlign=top;spacingLeft=4;spacingRight=4;overflow=hidden;rotatable=0;points=[[0,0.5],[1,0.5]];portConstraint=eastwest;" vertex="1" parent="bRQh9TKNIK82RvDpxn-U-33">
          <mxGeometry y="60" width="160" height="26" as="geometry" />
        </mxCell>
      </root>
    </mxGraphModel>
  </diagram>
  <diagram id="JMaIAMq9fLdXeeMKT8r0" name="Page-3">
    <mxGraphModel dx="1117" dy="670" grid="1" gridSize="10" guides="1" tooltips="1" connect="1" arrows="1" fold="1" page="1" pageScale="1" pageWidth="827" pageHeight="1169" math="0" shadow="0">
      <root>
        <mxCell id="NV75yv8DPrtTz5Rld6oB-0" />
        <mxCell id="NV75yv8DPrtTz5Rld6oB-1" parent="NV75yv8DPrtTz5Rld6oB-0" />
        <mxCell id="NV75yv8DPrtTz5Rld6oB-2" value="&lt;span id=&quot;docs-internal-guid-44252888-7fff-2376-17ab-80fb401f9b09&quot;&gt;&lt;span style=&quot;font-size: 16pt ; font-family: &amp;quot;fira sans condensed&amp;quot; , sans-serif ; background-color: transparent ; vertical-align: baseline&quot;&gt;A person plays for a team in a certain yea&lt;/span&gt;&lt;/span&gt;" style="text;html=1;align=left;verticalAlign=middle;resizable=0;points=[];autosize=1;fontSize=12;" vertex="1" parent="NV75yv8DPrtTz5Rld6oB-1">
          <mxGeometry x="80" y="50" width="410" height="20" as="geometry" />
        </mxCell>
        <mxCell id="NV75yv8DPrtTz5Rld6oB-3" value="&lt;b style=&quot;font-weight: normal&quot; id=&quot;docs-internal-guid-955927aa-7fff-6a1b-f108-c405c142fedf&quot;&gt;&lt;span style=&quot;font-size: 16pt; font-family: &amp;quot;fira sans condensed&amp;quot;, sans-serif; color: rgb(0, 0, 0); background-color: transparent; font-weight: 400; font-style: normal; font-variant: normal; text-decoration: none; vertical-align: baseline;&quot;&gt;A person marries another person.&lt;/span&gt;&lt;/b&gt;" style="text;whiteSpace=wrap;html=1;fontSize=12;" vertex="1" parent="NV75yv8DPrtTz5Rld6oB-1">
          <mxGeometry x="80" y="310" width="340" height="30" as="geometry" />
        </mxCell>
        <mxCell id="NV75yv8DPrtTz5Rld6oB-4" value="&lt;b style=&quot;font-weight: normal&quot; id=&quot;docs-internal-guid-1f0af120-7fff-be43-13e5-26703ad84b5c&quot;&gt;&lt;span style=&quot;font-size: 16pt; font-family: &amp;quot;fira sans condensed&amp;quot;, sans-serif; color: rgb(0, 0, 0); background-color: transparent; font-weight: 400; font-style: normal; font-variant: normal; text-decoration: none; vertical-align: baseline;&quot;&gt;A student takes a course from a professor&lt;/span&gt;&lt;/b&gt;" style="text;whiteSpace=wrap;html=1;fontSize=12;" vertex="1" parent="NV75yv8DPrtTz5Rld6oB-1">
          <mxGeometry x="80" y="620" width="420" height="30" as="geometry" />
        </mxCell>
      </root>
    </mxGraphModel>
  </diagram>
</mxfile>
